<?xml version="1.0" encoding="utf-8"?>
<!-- Generator: Adobe Illustrator 25.2.1, SVG Export Plug-In . SVG Version: 6.00 Build 0)  -->
<svg version="1.1" id="Layer_1" xmlns="http://www.w3.org/2000/svg" xmlns:xlink="http://www.w3.org/1999/xlink" x="0px" y="0px"
	 viewBox="0 0 60 60" style="enable-background:new 0 0 60 60;" xml:space="preserve">
<style type="text/css">
	.st0{fill:none;stroke:#010202;stroke-width:1.5px;stroke-miterlimit:10;}
	.st1{fill:none;stroke:#000000;stroke-width:1.5px;stroke-miterlimit:10;}
	.st2{fill:none;stroke:#000000;stroke-width:1.5px;stroke-linecap:round;stroke-linejoin:round;stroke-miterlimit:10;}
</style>
<g>
	<path class="st0" d="M47.01,44.54H12.99c-0.94,0-1.71-0.76-1.71-1.71v0c0-0.94,0.76-1.71,1.71-1.71h34.02
		c0.94,0,1.71,0.76,1.71,1.71v0C48.72,43.77,47.96,44.54,47.01,44.54z"/>
	<path class="st0" d="M15.65,44.54l11.09,12.64c1.85,2.1,5.13,2.08,6.94-0.06l10.65-12.58H15.65z"/>
	<path class="st1" d="M27.32,27.17c-3.77,2.78-8.89,2.83-12.72,0.6c-2.04-1.19-2.96-3.08-3.14-5.41c-0.23-3.05,1.02-5.47,3.03-7.6
		c0.32-0.33,0.57-0.75,0.93-1.02c0.87-0.64,1.01-1.49,0.99-2.51c-0.06-3.08-0.02-6.17-0.02-9.25c0-0.22,0-0.43,0-0.72
		c1.14,0,2.2,0,3.36,0c0,0.24,0,0.47,0,0.7c0,3.28,0.01,6.57-0.01,9.85c0,0.4,0.12,0.63,0.46,0.87c1.4,0.96,2.88,1.84,4.11,2.99
		c2.24,2.08,3.32,4.79,3.62,7.82C27.93,23.49,27.42,27.1,27.32,27.17z"/>
	<path class="st2" d="M32.01,23.47c0.43-4.03,2.24-7.24,5.66-9.49c0.68-0.45,1.37-0.9,2.08-1.31c0.33-0.2,0.45-0.42,0.45-0.81
		c-0.02-3.28-0.01-6.57-0.01-9.85c0-0.23,0-0.47,0-0.74c1.14,0,2.21,0,3.36,0c0,0.26,0,0.49,0,0.73c0,3.4-0.01,6.81,0.02,10.21
		c0,0.3,0.17,0.64,0.36,0.88c1.21,1.54,2.59,2.96,3.64,4.59c1.81,2.82,1.11,7.29-1.32,9.43c-1.31,1.16-2.92,1.7-4.61,2.02
		c-3.35,0.63-6.43-0.02-9.18-2.09L32.01,23.47z"/>
	<path class="st1" d="M31.85,25.98"/>
	<path class="st1" d="M31.85,25.98"/>
	<path class="st1" d="M28.08,25.98"/>
	<path class="st1" d="M28.08,25.98"/>
	<line class="st2" x1="27.7" y1="26.59" x2="32.16" y2="26.59"/>
</g>
</svg>
