<svg id="Layer_1" data-name="Layer 1" xmlns="http://www.w3.org/2000/svg" viewBox="0 0 150 150"><defs><style>.cls-1{fill:none;stroke:#000;stroke-miterlimit:10;stroke-width:4px;}</style></defs><path class="cls-1" d="M121.57,18.21a2.61,2.61,0,0,0-2.27-2.14L118,15.8c-1-.19-2.35-.46-4.14-.79-2.67-.49-6.23-1.12-10.57-1.88L94,2.29l-.11-.12h0l-.08-.08h0a2.39,2.39,0,0,0-1.66-.66H57.82a2.39,2.39,0,0,0-1.66.66h0l-.08.08h0L56,2.29,46.67,13.13c-4.34.76-7.9,1.39-10.57,1.88-1.79.33-3.18.6-4.14.79l-1.26.27a2.6,2.6,0,0,0-2.27,2.14L6.38,126a2.44,2.44,0,0,0,.5,2,2.41,2.41,0,0,0,.85.67,2.55,2.55,0,0,0,1,.23h20C27.24,138.49,26,145.5,26,145.7a2.37,2.37,0,0,0,0,1.06,2.49,2.49,0,0,0,.49.94,2.45,2.45,0,0,0,.85.65,2.41,2.41,0,0,0,1,.22H70.1a2.44,2.44,0,0,0,1.73-.71,2.47,2.47,0,0,0,.72-1.74v-7.36h4.9v7.36a2.47,2.47,0,0,0,.72,1.74,2.44,2.44,0,0,0,1.74.71H121.6a2.45,2.45,0,0,0,1-.22,2.57,2.57,0,0,0,.84-.65,2.51,2.51,0,0,0,.5-.94,2.37,2.37,0,0,0,0-1.06c0-.2-1.25-7.21-2.81-16.75h20a2.55,2.55,0,0,0,1.05-.23,2.41,2.41,0,0,0,.85-.67,2.44,2.44,0,0,0,.5-2Z"/><path d="M116.72,19s0-.06,0-.1S116.72,18.93,116.72,19Z"/><path d="M33.29,18.86s0,.07,0,.11S33.29,18.9,33.29,18.86Z"/><polyline class="cls-1" points="46.67 13.13 74.7 77.79 103.33 13.13"/><line class="cls-1" x1="75" y1="77.79" x2="75" y2="138.76"/><path class="cls-1" d="M75,79.12l-21.2-19a4.17,4.17,0,0,1-1.16-4.47l2.57-7.53-9.39-5.22a4.83,4.83,0,0,1-2.49-4.45l1.16-25"/><path class="cls-1" d="M75,78.27l21.2-19a4.17,4.17,0,0,0,1.16-4.47l-2.57-7.53,9.39-5.22a4.83,4.83,0,0,0,2.49-4.45l-1.17-25"/><line class="cls-1" x1="121.2" y1="128.95" x2="105.14" y2="75"/><line class="cls-1" x1="28.8" y1="128.95" x2="44.86" y2="75"/></svg>