<svg id="Layer_1" data-name="Layer 1" xmlns="http://www.w3.org/2000/svg" viewBox="0 0 150 150"><defs><style>.cls-1{fill:none;stroke:#000;stroke-miterlimit:10;stroke-width:4px;}</style></defs><path class="cls-1" d="M126.42,109c-1.51-14.25-2.67-28.07-.37-40.41,4.9-1,7.83-2.47,9.38-4.72,1.73-2.52,1.26-5.24.84-7.64a17.09,17.09,0,0,1-.35-2.88c0-1.43,1.24-2.45,3.25-4,2.41-1.86,5.42-4.19,5.42-8.51a23.29,23.29,0,0,0-.88-7,10.49,10.49,0,0,1-.48-3.21c0-.68.57-1.37,1.58-2.53,1.85-2.11,4.38-5,4-10.76-.32-4.4-4.48-7.59-12.36-9.46a63.63,63.63,0,0,0-10.33-1.49A95.17,95.17,0,0,0,104,1.48a7,7,0,0,0-7.33,5.36c-1.42,5.64-6.28,10.37-13,12.65a27.22,27.22,0,0,1-17.34,0c-6.71-2.28-11.57-7-13-12.65A7,7,0,0,0,46,1.48,95.17,95.17,0,0,0,23.92,6.37,63.63,63.63,0,0,0,13.59,7.86c-7.88,1.87-12,5.06-12.36,9.46-.42,5.75,2.11,8.65,4,10.76,1,1.16,1.58,1.85,1.58,2.53a12.4,12.4,0,0,1-.48,3.21,23.29,23.29,0,0,0-.88,7c0,4.32,3,6.64,5.42,8.51,2.61,2,3.5,3.46,2.9,6.89-.42,2.4-.89,5.12.84,7.64,1.55,2.25,4.48,3.73,9.38,4.72,2.52,13.55.86,29-.74,43.86-.75,6.94-1.52,14.12-1.88,21.09A11,11,0,0,0,30.19,145a236.26,236.26,0,0,0,35.4,3.41q9.41.27,18.82,0a236.26,236.26,0,0,0,35.4-3.41,11,11,0,0,0,8.86-11.46c-.28-5.48-.81-11-1.3-15.63Z"/></svg>