<svg id="Layer_1" data-name="Layer 1" xmlns="http://www.w3.org/2000/svg" viewBox="0 0 150 150"><defs><style>.cls-1{fill:none;stroke:#000;stroke-miterlimit:10;stroke-width:4px;}</style></defs><path class="cls-1" d="M118,130.15A19.65,19.65,0,0,0,108,128c-12.32,0-20.52-19.17-21.73-22.15V5.09a2.41,2.41,0,0,0-2.41-2.42H30.74A2.45,2.45,0,0,0,29,3.38a2.42,2.42,0,0,0-.7,1.71A162.89,162.89,0,0,0,33,42.33,183.32,183.32,0,0,1,38,84.64a22.38,22.38,0,0,1-3.71,6.86c-2.46,3.66-4.1,6.08-3.42,8.3,4.74,15.81,7.11,45,7.13,45.31a2.36,2.36,0,0,0,.77,1.58,2.41,2.41,0,0,0,1.64.64h9.64a2.45,2.45,0,0,0,1.71-.71,2.42,2.42,0,0,0,.7-1.71V115.5A49.39,49.39,0,0,1,64.9,129.32c4,6.34,11.85,16.64,12.19,17.07a2.3,2.3,0,0,0,.85.69,2.43,2.43,0,0,0,1.06.25h31.34a12.47,12.47,0,0,0,11.33-11,7,7,0,0,0-1-3.58A7.18,7.18,0,0,0,118,130.15Z"/></svg>