<svg id="Layer_1" data-name="Layer 1" xmlns="http://www.w3.org/2000/svg" viewBox="0 0 150 150"><defs><style>.cls-1{fill:none;stroke:#000;stroke-miterlimit:10;stroke-width:4px;}</style></defs><path class="cls-1" d="M91.1,70.61A70.54,70.54,0,0,1,73.94,45.09L64,19.6a4.82,4.82,0,0,0-7.17-2.26L52.64,20.1a19,19,0,0,0-6.43,7.25H19.59a10.34,10.34,0,0,0-6.87-2.6H10a3,3,0,0,0-3,3V54.84A9,9,0,0,1,5.41,60,13.42,13.42,0,0,0,3,67.68V100a3.45,3.45,0,0,0-1.33,2.72v2.54a15.2,15.2,0,0,0,15.17,15.19h28a4.71,4.71,0,0,0,4.7-4.67l0-2.54,25.14,7.36a2,2,0,0,0,.6.09h62.44a11.16,11.16,0,0,0,11-11c0-10.47-8-18.63-18.07-20.09a72.35,72.35,0,0,1-33.7-13.9Z"/><path class="cls-1" d="M19.59,27.35v35.8a11.65,11.65,0,0,0,9.24,11.47,18.92,18.92,0,0,0,7.92-.08,11.66,11.66,0,0,0,9-11.42V27.35"/><path class="cls-1" d="M2,102H48.43c3.07,0,6.57-.43,9.49.52,5.47,1.79,11.29,4.5,16.92,5.54,7.18,1.33,14.61.09,21.85.12,5.23,0,10.47,0,15.7,0H148.8"/></svg>