<?xml version="1.0" encoding="utf-8"?>
<!-- Generator: Adobe Illustrator 25.2.1, SVG Export Plug-In . SVG Version: 6.00 Build 0)  -->
<svg version="1.1" id="Layer_1" xmlns="http://www.w3.org/2000/svg" xmlns:xlink="http://www.w3.org/1999/xlink" x="0px" y="0px"
	 viewBox="0 0 60 60" style="enable-background:new 0 0 60 60;" xml:space="preserve">
<style type="text/css">
	.st0{fill:none;stroke:#020203;stroke-width:1.5;stroke-miterlimit:10;}
	.st1{fill:#FFFFFF;stroke:#020203;stroke-width:1.5;stroke-miterlimit:10;}
	.st2{fill:none;stroke:#020203;stroke-width:1.5;stroke-linecap:round;stroke-miterlimit:10;}
</style>
<g>
	<g>
		<path class="st0" d="M31.09,16.39H8.63c-3.16,0-5.72-2.56-5.72-5.72V6.46c0-3.16,2.56-5.72,6.23-2.36h42.75
			c2.66-3.37,5.22-0.8,5.22,2.36v4.21c0,3.16-2.56,5.72-5.72,5.72h-5"/>
		<path class="st0" d="M31.09,16.39"/>
		<path class="st0" d="M46.38,16.39"/>
		<path class="st0" d="M29.19,8.62l11.41,42.04c0.82,3.02,3.93,4.8,6.95,3.98l3.04-0.82c3.02-0.82,4.8-3.93,3.98-6.95L43.16,4.83
			L43.1,4.42"/>
		<path class="st0" d="M34.96,29.77l0,16.13c0,3.13-2.54,5.66-5.66,5.66l-3.15,0c-3.13,0-5.66-2.54-5.66-5.66l0-29.87"/>
		<path class="st1" d="M34.94,31.91"/>
		<path class="st0" d="M29.19,8.62"/>
		<line class="st0" x1="29.19" y1="8.62" x2="27.73" y2="4.11"/>
	</g>
	<line class="st2" x1="22.67" y1="50.36" x2="21.08" y2="52.65"/>
	<line class="st2" x1="33.01" y1="50.41" x2="34.59" y2="52.71"/>
	<line class="st2" x1="29.53" y1="51.86" x2="29.72" y2="54.64"/>
	<line class="st2" x1="25.34" y1="51.87" x2="24.9" y2="54.63"/>
	<line class="st2" x1="44.81" y1="54.79" x2="43.8" y2="57.39"/>
	<line class="st2" x1="54.27" y1="51.38" x2="56.35" y2="53.25"/>
	<line class="st2" x1="51.84" y1="53.52" x2="52.66" y2="56.18"/>
	<line class="st2" x1="48.22" y1="54.7" x2="48.43" y2="57.48"/>
</g>
</svg>
