<?xml version="1.0" encoding="utf-8"?>
<!-- Generator: Adobe Illustrator 25.2.1, SVG Export Plug-In . SVG Version: 6.00 Build 0)  -->
<svg version="1.1" id="Layer_1" xmlns="http://www.w3.org/2000/svg" xmlns:xlink="http://www.w3.org/1999/xlink" x="0px" y="0px"
	 viewBox="0 0 60 60" style="enable-background:new 0 0 60 60;" xml:space="preserve">
<style type="text/css">
	.st0{fill:none;stroke:#010202;stroke-width:1.5;stroke-miterlimit:10;}
</style>
<g>
	<path class="st0" d="M13.27,55.22l16.51,3.88c0.15,0.03,0.3,0.03,0.44,0l16.51-3.88c0.21-0.05,0.4-0.17,0.54-0.34
		c0.14-0.17,0.21-0.38,0.21-0.6v-4.86h4.86c0.23,0,0.45-0.08,0.62-0.23c0.17-0.15,0.29-0.35,0.33-0.58l3.88-22.33
		c0.03-0.16,0.01-0.33-0.04-0.49L51.31,9.29c-0.05-0.15-0.14-0.29-0.26-0.4c-0.12-0.11-0.26-0.18-0.42-0.22L39.29,5.83l-3.68-4.6
		c-0.09-0.11-0.2-0.2-0.33-0.27c-0.13-0.06-0.27-0.1-0.42-0.1h-9.73c-0.14,0-0.29,0.03-0.42,0.1c-0.13,0.06-0.24,0.15-0.33,0.27
		l-3.68,4.6L9.37,8.67c-0.16,0.04-0.3,0.12-0.42,0.22C8.84,9,8.75,9.13,8.69,9.29L2.87,25.79c-0.06,0.16-0.07,0.33-0.04,0.49
		l3.88,22.33c0.04,0.23,0.16,0.43,0.33,0.58c0.18,0.15,0.4,0.23,0.63,0.23h4.86v4.86c0,0.22,0.07,0.43,0.21,0.6
		C12.87,55.05,13.06,55.17,13.27,55.22z"/>
	<path class="st0" d="M34.86,19.32c-0.26,0-0.5,0.1-0.69,0.28c-0.18,0.18-0.28,0.43-0.28,0.69v7.77c0,0.26,0.1,0.5,0.28,0.69
		c0.18,0.18,0.43,0.28,0.69,0.28h7.77c0.26,0,0.5-0.1,0.69-0.28c0.18-0.18,0.28-0.43,0.28-0.69v-7.77c0-0.26-0.1-0.5-0.28-0.69
		c-0.18-0.18-0.43-0.28-0.69-0.28H34.86z"/>
	<polyline class="st0" points="25.14,0.87 30,6.15 34.86,0.87 	"/>
	<line class="st0" x1="12.52" y1="49.42" x2="12.52" y2="20.95"/>
	<line class="st0" x1="47.48" y1="49.42" x2="47.48" y2="20.95"/>
	<path class="st0" d="M20.71,5.83"/>
	<polyline class="st0" points="20.71,5.83 25.46,10.58 30,6.15 30,59.1 	"/>
	<polyline class="st0" points="39.29,5.83 34.53,10.59 30,6.15 	"/>
	<line class="st0" x1="6.34" y1="46.49" x2="12.52" y2="46.49"/>
	<line class="st0" x1="47.75" y1="46.49" x2="53.93" y2="46.49"/>
</g>
</svg>
