<svg id="Layer_1" data-name="Layer 1" xmlns="http://www.w3.org/2000/svg" viewBox="0 0 150 150"><defs><style>.cls-1,.cls-2{fill:none;stroke:#000;stroke-miterlimit:10;stroke-width:4px;}.cls-2{stroke-linecap:round;}</style></defs><path class="cls-1" d="M14.49,45.42v99.77a2.42,2.42,0,0,0,2.42,2.42H38.7a2.42,2.42,0,0,0,2.42-2.42v-9.68h67.76v9.68a2.42,2.42,0,0,0,2.42,2.42h21.79a2.42,2.42,0,0,0,2.42-2.42V45.42A21.74,21.74,0,0,0,117.3,23.93L105.82,22,99.05,4a2.38,2.38,0,0,0-.89-1.14,2.34,2.34,0,0,0-1.38-.42h-46a2.42,2.42,0,0,0-2.35,1.83L44,22.05,32.7,23.93A21.74,21.74,0,0,0,14.49,45.42Z"/><line class="cls-2" x1="49.31" y1="97.02" x2="53.8" y2="115.41"/><line class="cls-2" x1="99.24" y1="97.02" x2="94.74" y2="115.41"/><line class="cls-2" x1="73.15" y1="135.51" x2="73.15" y2="2.39"/><polyline class="cls-2" points="49.31 2.9 62.09 15.69 62.09 133.16"/><polyline class="cls-2" points="96.99 3.82 84.21 16.61 84.21 134.07"/><line class="cls-2" x1="41.12" y1="135.51" x2="41.12" y2="44.77"/><line class="cls-2" x1="108.88" y1="135.51" x2="108.88" y2="44.77"/></svg>