<?xml version="1.0" encoding="utf-8"?>
<!-- Generator: Adobe Illustrator 25.2.1, SVG Export Plug-In . SVG Version: 6.00 Build 0)  -->
<svg version="1.1" id="Layer_1" xmlns="http://www.w3.org/2000/svg" xmlns:xlink="http://www.w3.org/1999/xlink" x="0px" y="0px"
	 viewBox="0 0 60 60" style="enable-background:new 0 0 60 60;" xml:space="preserve">
<style type="text/css">
	.st0{fill:none;stroke:#010202;stroke-width:1.5;stroke-miterlimit:10;}
	.st1{fill:none;stroke:#010202;stroke-width:1.5;stroke-linecap:round;stroke-miterlimit:10;}
</style>
<g>
	<path class="st0" d="M30,30.27l-1.63,1.17l-7.64,4.64c-0.09,0.09-0.17,0.09-0.17,0.17c-0.09,0.09-0.09,0.17-0.09,0.26v0.09v0.09
		v15.72v0.09v0.09c0,0.09,0.09,0.17,0.09,0.26c0,0,0,0,0.09,0.09l0.09,0.09l0.09,0.09c0,0,0,0,0.09,0.09l8.67,5.32h0.09h0.09
		c0.09,0,0.17,0.09,0.26,0.09c0.09,0,0.17,0,0.26-0.09h0.09h0.09l8.67-5.32c0,0,0,0,0.09-0.09l0.09-0.09l0.09-0.09
		c0,0,0,0,0.09-0.09c0.09-0.09,0.09-0.17,0.09-0.26v-0.09v-0.09V36.85v-0.09v-0.09c0-0.09-0.09-0.17-0.09-0.26
		c-0.09-0.09-0.09-0.17-0.17-0.17l-7.56-4.64L30,30.27z"/>
	<path class="st0" d="M30,36.29l-0.94,0.67l-4.39,2.66c-0.05,0.05-0.1,0.05-0.1,0.1c-0.05,0.05-0.05,0.1-0.05,0.15v0.05v0.05V49
		v0.05v0.05c0,0.05,0.05,0.1,0.05,0.15c0,0,0,0,0.05,0.05l0.05,0.05l0.05,0.05c0,0,0,0,0.05,0.05l4.98,3.06h0.05h0.05
		c0.05,0,0.1,0.05,0.15,0.05s0.1,0,0.15-0.05h0.05h0.05l4.98-3.06c0,0,0,0,0.05-0.05l0.05-0.05l0.05-0.05c0,0,0,0,0.05-0.05
		c0.05-0.05,0.05-0.1,0.05-0.15v-0.05V49v-8.93v-0.05v-0.05c0-0.05-0.05-0.1-0.05-0.15c-0.05-0.05-0.05-0.1-0.1-0.1l-4.34-2.66
		L30,36.29z"/>
	<path class="st1" d="M58.15,1.43c0,15.55-12.6,28.15-28.15,28.15S1.85,16.98,1.85,1.43"/>
	<path class="st0" d="M30,39.06"/>
	<line class="st0" x1="30" y1="30.95" x2="30" y2="36.29"/>
	<line class="st0" x1="35.43" y1="39.82" x2="39.53" y2="36.85"/>
	<line class="st0" x1="24.67" y1="39.63" x2="20.55" y2="36.24"/>
	<line class="st0" x1="35.48" y1="49.05" x2="39.1" y2="53.16"/>
	<line class="st0" x1="24.52" y1="49.05" x2="20.47" y2="52.56"/>
	<line class="st0" x1="30" y1="52.55" x2="30" y2="58.49"/>
</g>
</svg>
