<?xml version="1.0" encoding="utf-8"?>
<!-- Generator: Adobe Illustrator 25.2.1, SVG Export Plug-In . SVG Version: 6.00 Build 0)  -->
<svg version="1.1" id="Layer_1" xmlns="http://www.w3.org/2000/svg" xmlns:xlink="http://www.w3.org/1999/xlink" x="0px" y="0px"
	 viewBox="0 0 60 60" style="enable-background:new 0 0 60 60;" xml:space="preserve">
<style type="text/css">
	.st0{fill:none;stroke:#010202;stroke-width:1.5;stroke-miterlimit:10;}
	.st1{fill:none;stroke:#010202;stroke-width:1.5;stroke-linecap:round;stroke-miterlimit:10;}
</style>
<g>
	<path class="st0" d="M56.32,50.96L44.12,9.92V4.15c0-0.68-0.55-1.24-1.24-1.24H17.12c-0.68,0-1.24,0.55-1.24,1.24v5.77L3.68,50.96
		c-0.16,0.55,0.07,1.14,0.57,1.42c0.33,0.2,8.31,4.71,24.22,4.71h3.07c15.91,0,23.9-4.53,24.22-4.71
		C56.25,52.09,56.49,51.51,56.32,50.96z"/>
	<line class="st0" x1="15.88" y1="9.92" x2="44.12" y2="9.92"/>
	<g>
		<line class="st1" x1="41.96" y1="46.17" x2="44.84" y2="55.88"/>
		<line class="st1" x1="18.04" y1="46.17" x2="15.16" y2="55.88"/>
	</g>
</g>
</svg>
