<?xml version="1.0" encoding="utf-8"?>
<!-- Generator: Adobe Illustrator 25.2.1, SVG Export Plug-In . SVG Version: 6.00 Build 0)  -->
<svg version="1.1" id="Layer_1" xmlns="http://www.w3.org/2000/svg" xmlns:xlink="http://www.w3.org/1999/xlink" x="0px" y="0px"
	 viewBox="0 0 60 60" style="enable-background:new 0 0 60 60;" xml:space="preserve">
<style type="text/css">
	.st0{fill:none;stroke:#010202;stroke-width:1.5;stroke-miterlimit:10;}
</style>
<g>
	<path class="st0" d="M46.72,55.96L43.93,3.01C43.91,2.52,43.5,2.13,43,2.13H17c-0.49,0-0.9,0.39-0.93,0.88l-2.79,52.94
		c-0.03,0.5,0.34,0.92,0.83,0.97l9.29,0.93c0.49,0.04,0.93-0.29,1.01-0.77L30,22.78l5.59,34.31c0.07,0.45,0.47,0.78,0.92,0.78
		c0.03,0,0.06,0,0.09,0l9.29-0.93C46.38,56.88,46.74,56.45,46.72,55.96z"/>
	<line class="st0" x1="15.89" y1="6.36" x2="44.11" y2="6.36"/>
	<line class="st0" x1="30" y1="6.36" x2="30" y2="22.78"/>
	<path class="st0" d="M37.28,6.36c0,0,0.21,7.1,7.1,7.1"/>
	<path class="st0" d="M22.45,6.36c0,0-0.21,7.1-7.1,7.1"/>
	<path class="st0" d="M30,18.25h-0.22c-1.48,0-2.67-1.2-2.67-2.67V6.36H30V18.25z"/>
</g>
</svg>
