<?xml version="1.0" encoding="utf-8"?>
<!-- Generator: Adobe Illustrator 25.2.1, SVG Export Plug-In . SVG Version: 6.00 Build 0)  -->
<svg version="1.1" id="Layer_1" xmlns="http://www.w3.org/2000/svg" xmlns:xlink="http://www.w3.org/1999/xlink" x="0px" y="0px"
	 viewBox="0 0 60 60" style="enable-background:new 0 0 60 60;" xml:space="preserve">
<style type="text/css">
	.st0{fill:none;stroke:#010202;stroke-width:1.5;stroke-miterlimit:10;}
</style>
<g>
	<path class="st0" d="M45.65,14.14c-0.84-0.13-1.69-0.24-2.53-0.32c-0.22-1.6-2.34-3.47-4.72-3.47c-2.38,0-4.49,1.87-4.72,3.46
		c-1.43,0.15-2.85,0.36-4.27,0.64c-6.44,1.27-11.3,6.45-12.09,12.87l-0.82,6.61c-5.1,2.17-9.75,5.83-12.96,8.38l0,0
		c-0.56,0.31-1.07,0.71-1.44,1.23c-0.58,0.82-0.68,1.87-0.26,2.74c0.4,0.82,1.22,1.35,2.19,1.42c1.65,0.11,3.38-0.93,4.77-1.76
		c0.2-0.12,0.38-0.23,0.56-0.33c1.5-0.87,2.73-1.79,3.73-2.79c0.97,0.28,1.99,0.7,3.11,1.28c0.97,0.5,2.01,1.17,3.11,1.88
		c2.61,1.69,5.56,3.6,8.57,3.68c0.03,0,0.05,0,0.08,0c2.41,0,6.48-2.91,11.54-6.71c1.71-1.29,3.32-2.49,4.11-2.91
		c0.07,0,0.15,0,0.22,0c6.04,0,10.78-0.9,14.08-2.66c0.31-0.16,0.5-0.48,0.5-0.82v-7.63C58.41,21.53,53.04,15.31,45.65,14.14z"/>
	<path class="st0" d="M16.51,33.93c12.95-6.85,27.33,6.1,27.33,6.1"/>
	<line class="st0" x1="33.68" y1="13.81" x2="43.12" y2="13.82"/>
	<path class="st0" d="M13.1,42.81c0,0-2.97-1.47-9.01-0.53"/>
	<path class="st0" d="M43.84,39.45c0,0,5.68-25.87-5.06-25.63"/>
</g>
</svg>
