<svg id="Layer_1" data-name="Layer 1" xmlns="http://www.w3.org/2000/svg" viewBox="0 0 150 150"><defs><style>.cls-1{fill:none;stroke:#010101;stroke-miterlimit:10;stroke-width:4px;}</style></defs><path class="cls-1" d="M145.59,60.13h-8.43a18.8,18.8,0,0,0-16.36-9.49H101.49a18.62,18.62,0,0,0-14,6.26,13.16,13.16,0,0,0-8.78-3.36H71.31a13.16,13.16,0,0,0-8.78,3.36,18.62,18.62,0,0,0-14-6.26H29.2a18.8,18.8,0,0,0-16.36,9.49H4.41a4.42,4.42,0,0,0,0,8.83h5.95c-.07,2.38.12,2.91,1.77,12.79,2.5,15,21.65,20.86,36,15.87,10-3.48,18.82-14.8,18.82-30.89a4.37,4.37,0,0,1,4.37-4.36h7.38a4.37,4.37,0,0,1,4.37,4.36c0,16.08,8.85,27.41,18.82,30.89,14.34,5,33.49-.89,36-15.87,1.61-9.69,1.84-10.39,1.77-12.79h6a4.42,4.42,0,0,0,0-8.83Z"/></svg>