<svg id="Layer_1" data-name="Layer 1" xmlns="http://www.w3.org/2000/svg" viewBox="0 0 150 52.79"><path d="M2,34.58,8.87,18H9l6.89,16.58H13.46L8.29,21.35l1.51-1L4,34.58Zm4.06-6h5.88l.7,1.85H5.39Z"/><path d="M24.31,18.69h2.12V32.54h8v2H24.31Z"/><path d="M41.88,18.69H44V32.54h8v2H41.88Z"/><path d="M59.45,18.69H69.73v2H61.57v4.85h7.28v2.05H61.57v4.93H70v2H59.45Z"/><path d="M89.57,33.22a4,4,0,0,1-.91.59,12.8,12.8,0,0,1-1.3.49,10.82,10.82,0,0,1-1.47.35,8.42,8.42,0,0,1-1.41.14,9.26,9.26,0,0,1-3.42-.59,7.52,7.52,0,0,1-2.61-1.65A7.15,7.15,0,0,1,76.77,30a8.1,8.1,0,0,1-.58-3.11,9.22,9.22,0,0,1,.66-3.56A7.62,7.62,0,0,1,81.22,19a8.67,8.67,0,0,1,3.11-.58,9.28,9.28,0,0,1,2.56.33,10.07,10.07,0,0,1,2.06.86l-.71,2a5.86,5.86,0,0,0-1.08-.49c-.43-.14-.88-.26-1.32-.36a6.1,6.1,0,0,0-1.27-.14,6.86,6.86,0,0,0-2.54.43,5.34,5.34,0,0,0-2,1.23,5.4,5.4,0,0,0-1.25,1.94,7.07,7.07,0,0,0-.43,2.54,6.47,6.47,0,0,0,.43,2.38A5.59,5.59,0,0,0,80.08,31,5.77,5.77,0,0,0,82,32.21a6.78,6.78,0,0,0,2.48.43,7.19,7.19,0,0,0,1.6-.17A4.49,4.49,0,0,0,87.46,32V28.83H84.31v-2h5.27Z"/><path d="M95.92,26.63a7.71,7.71,0,0,1,.62-3.11,8.35,8.35,0,0,1,4.31-4.38,7.84,7.84,0,0,1,6.25,0,8.14,8.14,0,0,1,4.33,4.35,7.9,7.9,0,0,1,.64,3.11,8.09,8.09,0,0,1-.58,3.19,8,8,0,0,1-1.75,2.58,8.27,8.27,0,0,1-2.58,1.76,7.6,7.6,0,0,1-3.12.63,8,8,0,0,1-5.71-2.33,8.3,8.3,0,0,1-2.41-5.8Zm2.18,0A6.06,6.06,0,0,0,98.56,29a6.22,6.22,0,0,0,1.27,1.93,6.14,6.14,0,0,0,1.89,1.34,6,6,0,0,0,4.64,0A5.68,5.68,0,0,0,108.21,31,6.6,6.6,0,0,0,109.46,29a6.39,6.39,0,0,0,.35-3.54,6.29,6.29,0,0,0-1.63-3.15A6.11,6.11,0,0,0,106.31,21a5.85,5.85,0,0,0-4.64,0,6.21,6.21,0,0,0-1.88,1.32,6,6,0,0,0-1.25,2,6.36,6.36,0,0,0-.41,2.33Z"/><path d="M124.08,18.69a7.65,7.65,0,0,1,2.23.31,5.19,5.19,0,0,1,1.76.95,4.41,4.41,0,0,1,1.17,1.54,5,5,0,0,1,.42,2.13,6.42,6.42,0,0,1-.27,1.85,4.27,4.27,0,0,1-.91,1.64,4.57,4.57,0,0,1-1.65,1.17,6.18,6.18,0,0,1-2.51.46H122v5.84h-2.12V18.69Zm.22,8a3.76,3.76,0,0,0,1.56-.28,2.6,2.6,0,0,0,1-.72,2.85,2.85,0,0,0,.5-1,3.11,3.11,0,0,0,0-2,2.72,2.72,0,0,0-.55-1,3,3,0,0,0-.92-.7,3.23,3.23,0,0,0-1.41-.28H122v5.94Zm2.61,1.21,4.13,6.7h-2.45L124.39,28Z"/><path d="M140,29.28l-5.85-10.59h2.61l4.71,8.76-.66,0,4.64-8.83h2.58l-5.89,10.62v5.3H140Z"/></svg>