<svg id="Layer_1" data-name="Layer 1" xmlns="http://www.w3.org/2000/svg" viewBox="0 0 150 52.79"><defs><style>.cls-1{fill:#90d0d2;}.cls-2{fill:#fff;}</style></defs><path class="cls-1" d="M150,0H98.79V52.79H150Z"/><path d="M98.79,0H0V52.79H98.79Z"/><path class="cls-2" d="M20.43,31.09,25.2,19.66h.09L30,31.09H28.36L24.8,22l1-.69-4,9.81Zm2.8-4.16h4.05l.48,1.28h-5Z"/><path class="cls-2" d="M35.84,20.13H37.3v9.55h5.54v1.41h-7Z"/><path class="cls-2" d="M48,20.13h1.46v9.55H55v1.41H48Z"/><path class="cls-2" d="M60.06,20.13h7.09v1.41H61.52v3.34h5v1.41h-5V29.7h5.84v1.41h-7.3Z"/><path class="cls-2" d="M80.83,30.15a2.79,2.79,0,0,1-.63.4,7.61,7.61,0,0,1-.9.35,8.72,8.72,0,0,1-1,.24,5.31,5.31,0,0,1-1,.09,6.3,6.3,0,0,1-2.36-.4,5.4,5.4,0,0,1-1.8-1.14A5.11,5.11,0,0,1,72,28a5.61,5.61,0,0,1-.4-2.14,6.47,6.47,0,0,1,.46-2.46,5.24,5.24,0,0,1,3-3,5.81,5.81,0,0,1,2.14-.4A6.23,6.23,0,0,1,79,20.2a7.38,7.38,0,0,1,1.42.6l-.49,1.35a4.21,4.21,0,0,0-.75-.34,8.68,8.68,0,0,0-.91-.25,4.3,4.3,0,0,0-.87-.1,4.74,4.74,0,0,0-1.75.3,3.56,3.56,0,0,0-1.34.85A3.74,3.74,0,0,0,73.42,24a5.19,5.19,0,0,0-.3,1.75,4.58,4.58,0,0,0,.3,1.64,3.7,3.7,0,0,0,2.2,2.11,4.57,4.57,0,0,0,1.71.3,5.78,5.78,0,0,0,1.1-.11,3.19,3.19,0,0,0,.94-.33V27.13H77.2V25.72h3.63Z"/><path class="cls-2" d="M85.2,25.61a5.47,5.47,0,0,1,.43-2.15,5.77,5.77,0,0,1,3-3,5.5,5.5,0,0,1,4.31,0,5.85,5.85,0,0,1,1.78,1.21,5.69,5.69,0,0,1,1.2,1.79,5.14,5.14,0,0,1,.44,2.15,5.29,5.29,0,0,1-.4,2.19,5.58,5.58,0,0,1-1.2,1.79A5.73,5.73,0,0,1,93,30.78a5.3,5.3,0,0,1-2.15.43,5.55,5.55,0,0,1-3.94-1.61,5.49,5.49,0,0,1-1.2-1.77A5.84,5.84,0,0,1,85.2,25.61Zm1.51,0A4,4,0,0,0,87,27.22a4.53,4.53,0,0,0,.88,1.33,4.3,4.3,0,0,0,1.3.93,4.16,4.16,0,0,0,3.2,0,4,4,0,0,0,1.28-.89,4.67,4.67,0,0,0,.86-1.33,4.32,4.32,0,0,0,.23-2.44,4.23,4.23,0,0,0-2.41-3.08,4,4,0,0,0-3.2,0,4.32,4.32,0,0,0-1.29.91A4.09,4.09,0,0,0,87,24a4.41,4.41,0,0,0-.29,1.61Z"/><path d="M104.62,20.13a5.34,5.34,0,0,1,1.53.22,3.78,3.78,0,0,1,1.22.65,3.13,3.13,0,0,1,.8,1.07,3.5,3.5,0,0,1,.29,1.46,4.32,4.32,0,0,1-.19,1.28,3.05,3.05,0,0,1-.62,1.13,3.23,3.23,0,0,1-1.14.8,4.12,4.12,0,0,1-1.73.32h-1.6v4h-1.46v-11Zm.15,5.53a2.61,2.61,0,0,0,1.07-.2,1.94,1.94,0,0,0,.68-.49A2.4,2.4,0,0,0,107,23.6a2.25,2.25,0,0,0-.11-.68,1.86,1.86,0,0,0-.39-.7,2,2,0,0,0-.63-.48,2.27,2.27,0,0,0-1-.19H103.2v4.09Zm1.79.83,2.85,4.62h-1.69l-2.89-4.57Z"/><path d="M115.6,27.43l-4-7.3h1.8l3.24,6-.45,0,3.2-6.08h1.78l-4.06,7.31v3.66H115.6Z"/></svg>