<?xml version="1.0" encoding="utf-8"?>
<!-- Generator: Adobe Illustrator 25.2.1, SVG Export Plug-In . SVG Version: 6.00 Build 0)  -->
<svg version="1.1" id="Layer_1" xmlns="http://www.w3.org/2000/svg" xmlns:xlink="http://www.w3.org/1999/xlink" x="0px" y="0px"
	 viewBox="0 0 60 60" style="enable-background:new 0 0 60 60;" xml:space="preserve">
<style type="text/css">
	.st0{fill:none;stroke:#020203;stroke-width:1.5;stroke-miterlimit:10;}
</style>
<g>
	<path class="st0" d="M51.08,22.69c-1.42-4.69-3.36-11.3-6.01-20.46c-0.29-1.03-1.35-1.63-2.38-1.35L31.15,4.25
		c-0.6-2.08-0.63-2.71-1.52-3.2c-0.44-0.24-0.96-0.3-1.45-0.16L13.19,5.26c-1.02,0.29-1.62,1.35-1.35,2.37l6.77,25.39L8.37,43.73
		c-3.56,3.47-3.63,9.18-0.15,12.74c3.47,3.56,9.18,3.63,12.74,0.15l1.41-1.22c1.54,1.95,3.81,3.19,6.28,3.42
		c2.47,0.23,4.93-0.57,6.8-2.2c6.55-5.64,8.94-7.84,13.82-11.24c4.14-2.86,6-8.04,4.62-12.88L51.08,22.69z"/>
	<path class="st0" d="M30.38,8.55"/>
	<path class="st0" d="M28.7,2.74"/>
	<path class="st0" d="M13.73,7.07"/>
	<path class="st0" d="M15.21,12.66"/>
	<path class="st0" d="M36.17,28.57c-6.96,3.67-9.87,10.48-5.32,17.29"/>
	<path class="st0" d="M32.05,14.36"/>
	<path class="st0" d="M7.88,44.25l1.79,0.94c4.07,2.48,7.38,6.05,9.55,10.3l0.98,1.79"/>
	<path class="st0" d="M50.69,28.58c-6.93,3.65-9.89,10.45-5.32,17.29"/>
	<path class="st0" d="M50.69,28.58"/>
	<path class="st0" d="M36.17,56.01l-1.23-2.34c-1.11-1.97-2.45-3.79-4-5.43c1.24-0.97,2.51-1.94,3.8-2.83
		c4.12-2.87,5.97-8.04,4.61-12.87l-4.32-14.91"/>
	<path class="st0" d="M45.36,45.86"/>
	<line class="st0" x1="36.17" y1="28.57" x2="37.98" y2="27.83"/>
	<line class="st0" x1="30.76" y1="45.73" x2="32" y2="47.41"/>
	<line class="st0" x1="22.37" y1="55.41" x2="30.93" y2="48.23"/>
	<polyline class="st0" points="31.15,4.25 31.69,6.09 33.35,11.84 35.03,17.62 	"/>
	<line class="st0" x1="50.69" y1="28.58" x2="52.55" y2="27.83"/>
	<line class="st0" x1="45.36" y1="45.86" x2="46.48" y2="47.41"/>
	<line class="st0" x1="13.19" y1="12.66" x2="31.97" y2="7.07"/>
	<line class="st0" x1="32.86" y1="10.14" x2="46.28" y2="6.39"/>
</g>
</svg>
