<?xml version="1.0" encoding="utf-8"?>
<!-- Generator: Adobe Illustrator 25.2.1, SVG Export Plug-In . SVG Version: 6.00 Build 0)  -->
<svg version="1.1" id="Layer_1" xmlns="http://www.w3.org/2000/svg" xmlns:xlink="http://www.w3.org/1999/xlink" x="0px" y="0px"
	 viewBox="0 0 60 60" style="enable-background:new 0 0 60 60;" xml:space="preserve">
<style type="text/css">
	.st0{fill:none;stroke:#010202;stroke-width:1.5;stroke-linecap:round;stroke-miterlimit:10;}
	.st1{fill:none;stroke:#010202;stroke-width:1.5;stroke-miterlimit:10;}
</style>
<g>
	<g>
		<path class="st0" d="M5.96,15.6c1.43-0.72,2.64-1.83,3.48-3.2c0.84-1.37,1.28-2.94,1.28-4.55V6.21c0-1.42,0.55-2.79,1.54-3.82
			c0.99-1.03,2.34-1.63,3.76-1.67c0.72-0.02,1.44,0.1,2.11,0.37c0.67,0.26,1.28,0.66,1.8,1.17c0.56,0.54,1.01,1.19,1.32,1.91
			s0.47,1.49,0.47,2.27v9.03"/>
		<circle class="st1" cx="21.7" cy="18.66" r="3.24"/>
		<polygon class="st1" points="21.7,22.38 30.4,41.33 21.7,50.02 13.01,40.44 		"/>
		<polygon class="st1" points="21.7,27.96 27.38,40.33 21.7,46 16.03,39.75 		"/>
	</g>
	<g>
		<path class="st0" d="M29.6,24.86c1.43-0.72,2.64-1.83,3.48-3.2c0.84-1.37,1.28-2.94,1.28-4.55v-1.64c0-1.42,0.55-2.79,1.54-3.82
			s2.34-1.63,3.76-1.67c0.72-0.02,1.44,0.1,2.11,0.37c0.67,0.26,1.28,0.66,1.8,1.17c0.56,0.54,1.01,1.19,1.32,1.91
			c0.31,0.72,0.47,1.49,0.47,2.27v9.03"/>
		<circle class="st1" cx="45.34" cy="27.93" r="3.24"/>
		<polygon class="st1" points="45.34,31.65 54.04,50.59 45.34,59.29 36.65,49.71 		"/>
		<polygon class="st1" points="45.34,37.22 51.02,49.59 45.34,55.27 39.67,49.01 		"/>
	</g>
</g>
</svg>
