<?xml version="1.0" encoding="utf-8"?>
<!-- Generator: Adobe Illustrator 25.2.1, SVG Export Plug-In . SVG Version: 6.00 Build 0)  -->
<svg version="1.1" id="Layer_1" xmlns="http://www.w3.org/2000/svg" xmlns:xlink="http://www.w3.org/1999/xlink" x="0px" y="0px"
	 viewBox="0 0 60 60" style="enable-background:new 0 0 60 60;" xml:space="preserve">
<style type="text/css">
	.st0{fill:none;stroke:#010202;stroke-width:1.5;stroke-miterlimit:10;}
</style>
<path class="st0" d="M57.36,18.35c-0.01-0.01-0.03-0.03-0.04-0.04L45.9,8.17C45.8,8.07,45.68,8,45.54,7.95L37.28,5
	c-0.56-0.2-1.19,0.09-1.39,0.65c-0.04,0.1-0.06,0.21-0.06,0.32c0,0.24-0.36,5.74-5.86,5.83c-5.54-0.09-5.88-5.59-5.89-5.83
	c-0.03-0.6-0.54-1.06-1.14-1.03c-0.1,0.01-0.2,0.03-0.3,0.06l-8.25,2.99c-0.13,0.05-0.25,0.12-0.36,0.22L2.68,18.32
	c-0.43,0.41-0.45,1.1-0.04,1.53c0.01,0.01,0.03,0.03,0.04,0.04l9.03,9.13v24.97c0,0.6,0.49,1.09,1.09,1.09H47.2
	c0.6,0,1.09-0.49,1.09-1.09V29.02l9.03-9.13C57.76,19.48,57.77,18.79,57.36,18.35z"/>
</svg>
