<?xml version="1.0" encoding="utf-8"?>
<!-- Generator: Adobe Illustrator 25.2.1, SVG Export Plug-In . SVG Version: 6.00 Build 0)  -->
<svg version="1.1" id="Layer_1" xmlns="http://www.w3.org/2000/svg" xmlns:xlink="http://www.w3.org/1999/xlink" x="0px" y="0px"
	 viewBox="0 0 60 60" style="enable-background:new 0 0 60 60;" xml:space="preserve">
<style type="text/css">
	.st0{fill:none;stroke:#010202;stroke-width:1.3;stroke-miterlimit:10;}
</style>
<g>
	<path class="st0" d="M29.86,28.19l0.2-3.98c0.04-0.81-0.41-1.54-1.14-1.88l-4.65-2.12c-0.45-0.2-0.95-0.18-1.37,0.05
		c-0.43,0.24-0.71,0.65-0.77,1.14l-0.59,4.51h-5.56c-0.21-0.48-0.68-0.81-1.23-0.81h-3.83c-0.55,0-1.03,0.33-1.23,0.81H4.86
		c-0.71,0-1.29,0.54-1.29,1.21v3.09c0,0.67,0.58,1.21,1.29,1.21h4.82c0.21,0.48,0.68,0.81,1.23,0.81h3.83
		c0.55,0,1.03-0.33,1.23-0.81h4.84l-0.47,3.62H3.27C2.57,35.04,2,35.61,2,36.3v0.88c0,1.52,1.24,2.75,2.75,2.75h42.55l3.96,0h4.3
		c1.34,0,2.43-1.09,2.43-2.43v-1.65c0-0.45-0.37-0.82-0.82-0.82h-5.64c-0.03-1.15-0.18-2.29-0.44-3.4c-0.32-1.35-0.8-2.67-1.43-3.91
		c-0.11-0.21-0.29-0.36-0.51-0.42c-0.02-0.01-0.04-0.01-0.06-0.02l-5.03-0.97c-0.04-0.01-0.07-0.01-0.1-0.01c-0.01,0-0.02,0-0.03,0
		c-0.03,0-0.06,0-0.09,0c0,0-0.01,0-0.01,0c-0.04,0-0.07,0.01-0.11,0.02c0,0-0.01,0-0.01,0c-0.03,0.01-0.06,0.02-0.09,0.03
		c0,0-0.01,0-0.01,0c-0.01,0-0.01,0-0.02,0.01c0,0,0,0,0,0c-1.76,0.7-3.37,1.69-4.77,2.94c-1.75,1.56-3.17,3.53-4.1,5.72h-5.19
		l0.16-3.05L29.86,28.19z"/>
	<rect x="5.21" y="27.54" class="st0" width="4.36" height="2.24"/>
	<path class="st0" d="M14.45,27.84h-0.87c-1.06,0-1.06,1.64,0,1.64h0.87v1.11h-3.24v-3.86h3.24V27.84z"/>
	<polygon class="st0" points="21.03,29.78 16.09,29.78 16.09,27.54 21.32,27.54 	"/>
	<path class="st0" d="M45.14,35.04h-3.73c0.66-1.15,1.49-2.18,2.46-3.09c0.27-0.26,0.56-0.5,0.85-0.73
		c0.11,0.44,0.21,0.89,0.27,1.34C45.11,33.37,45.16,34.2,45.14,35.04z"/>
	<path class="st0" d="M44.76,29.16c-0.03,0.02-0.06,0.04-0.09,0.06c-0.68,0.46-1.33,0.96-1.93,1.52c-1.32,1.23-2.39,2.67-3.2,4.29
		H36.5c0.83-1.71,1.99-3.25,3.39-4.5c1.21-1.07,2.58-1.93,4.09-2.56l2.1,0.4C45.63,28.62,45.18,28.88,44.76,29.16z"/>
	<path class="st0" d="M46.78,35.04c0.03-0.92-0.03-1.83-0.17-2.73c-0.11-0.7-0.26-1.39-0.47-2.07c0.75-0.45,1.54-0.82,2.36-1.12
		c0.42,0.93,0.76,1.9,0.99,2.9c0.23,0.99,0.37,2.01,0.4,3.03H46.78z"/>
	<line class="st0" x1="20.34" y1="35.04" x2="29.52" y2="35.04"/>
</g>
</svg>
