<?xml version="1.0" encoding="utf-8"?>
<!-- Generator: Adobe Illustrator 25.2.1, SVG Export Plug-In . SVG Version: 6.00 Build 0)  -->
<svg version="1.1" id="Layer_1" xmlns="http://www.w3.org/2000/svg" xmlns:xlink="http://www.w3.org/1999/xlink" x="0px" y="0px"
	 viewBox="0 0 60 60" style="enable-background:new 0 0 60 60;" xml:space="preserve">
<style type="text/css">
	.st0{fill:none;stroke:#010202;stroke-width:1.5;stroke-miterlimit:10;}
</style>
<g>
	<path class="st0" d="M57.66,27.07l-4.82-4.82V3.5c0-0.91-0.74-1.65-1.65-1.65h-7.07c-0.91,0-1.65,0.74-1.65,1.65v18.73
		c-7.02,6.53-17.95,6.53-24.96,0V3.5c0-0.91-0.74-1.65-1.65-1.65H8.8c-0.91,0-1.65,0.74-1.65,1.65v18.75l-4.82,4.82
		c-0.31,0.31-0.48,0.73-0.48,1.17v5.6c0,3.5,1.31,6.81,3.69,9.36l3.43,13.7c0.18,0.73,0.84,1.25,1.6,1.25h38.86
		c0.76,0,1.42-0.52,1.6-1.25l3.43-13.7c2.38-2.55,3.69-5.85,3.69-9.36v-5.6C58.15,27.8,57.97,27.38,57.66,27.07z"/>
</g>
</svg>
