<?xml version="1.0" encoding="utf-8"?>
<!-- Generator: Adobe Illustrator 25.2.1, SVG Export Plug-In . SVG Version: 6.00 Build 0)  -->
<svg version="1.1" id="Layer_1" xmlns="http://www.w3.org/2000/svg" xmlns:xlink="http://www.w3.org/1999/xlink" x="0px" y="0px"
	 viewBox="0 0 60 60" style="enable-background:new 0 0 60 60;" xml:space="preserve">
<style type="text/css">
	.st0{fill:none;stroke:#010202;stroke-width:1.5;stroke-miterlimit:10;}
</style>
<g>
	<g>
		<path class="st0" d="M18.44,55.8c3.81,1.34,7.7,2.03,11.56,2.03c10.91,0,18.61-5.41,18.93-5.64c0.18-0.13,0.31-0.33,0.34-0.56
			c0.03-0.22-0.03-0.45-0.17-0.63c0,0,0,0,0,0c3.46-1.81,5.46-3.43,5.55-3.5c0.18-0.15,0.29-0.37,0.3-0.6
			c0.01-0.23-0.08-0.46-0.24-0.63c-8.39-8.39-15.2-20.31-16.1-21.92V20.7c0-0.73,0.15-1.9,0.46-3.5l0.09-0.45l0.6-2.74
			c0.39-1.69,0.74-3.01,0.75-3.02c0.04-0.16,0.04-0.33-0.02-0.49c-0.36-1.02-0.95-1.78-1.76-2.28c-0.08-1.15-0.5-3.92-2.76-5.85
			c-0.19-0.16-0.43-0.23-0.67-0.19c-0.24,0.04-0.45,0.18-0.58,0.39c-0.07,0.12-1.64,2.8-1.87,5.52c-0.13,0.04-0.25,0.08-0.38,0.13
			C31.38,8.6,30.49,9.03,30,9.28c-0.49-0.25-1.38-0.68-2.45-1.05c-0.13-0.04-0.25-0.09-0.38-0.13c-0.22-2.72-1.79-5.4-1.87-5.52
			c-0.12-0.21-0.34-0.35-0.58-0.39c-0.24-0.04-0.49,0.03-0.67,0.19c-2.26,1.94-2.69,4.7-2.76,5.85c-0.81,0.5-1.4,1.26-1.76,2.28
			c-0.06,0.16-0.06,0.33-0.02,0.49c0.02,0.07,1.89,7.14,1.89,9.71v3.64c-0.9,1.61-7.71,13.53-16.1,21.92
			c-0.17,0.17-0.25,0.39-0.24,0.63c0.01,0.23,0.12,0.45,0.3,0.6c0.09,0.07,2.09,1.69,5.55,3.5c0,0,0,0,0,0
			c-0.14,0.18-0.2,0.4-0.17,0.63c0.03,0.22,0.15,0.42,0.34,0.56c0.06,0.05,1.59,1.13,4.23,2.35L18.44,55.8z M35.62,4.41
			c0.86,1.08,1.21,2.33,1.35,3.21c-0.72-0.11-1.53-0.09-2.42,0.07C34.75,6.44,35.24,5.22,35.62,4.41z M24.38,4.41
			c0.38,0.81,0.87,2.03,1.07,3.27c-0.89-0.15-1.7-0.18-2.42-0.07C23.17,6.74,23.52,5.49,24.38,4.41z"/>
	</g>
	<path class="st0" d="M21.4,24.35c0,0,8.63,5.74,17.21,0"/>
</g>
</svg>
