<?xml version="1.0" encoding="utf-8"?>
<!-- Generator: Adobe Illustrator 25.2.1, SVG Export Plug-In . SVG Version: 6.00 Build 0)  -->
<svg version="1.1" id="Layer_1" xmlns="http://www.w3.org/2000/svg" xmlns:xlink="http://www.w3.org/1999/xlink" x="0px" y="0px"
	 viewBox="0 0 60 60" style="enable-background:new 0 0 60 60;" xml:space="preserve">
<style type="text/css">
	.st0{fill:none;stroke:#010202;stroke-width:1.3;stroke-miterlimit:10;}
</style>
<g>
	<path class="st0" d="M58.46,32.83c-0.01-1.43-0.55-2.81-1.52-3.86c-0.97-1.05-2.31-1.7-3.73-1.81l-3.01-0.23
		c-3.15-0.24-6.22-1.06-9.08-2.41l-0.11-0.06l0.1-0.1c0.18-0.18,0.28-0.42,0.28-0.67c0-0.25-0.1-0.49-0.28-0.67
		c-0.18-0.18-0.42-0.28-0.67-0.28c-0.25,0-0.49,0.1-0.67,0.28l-0.53,0.53l-1.99-1.02l0.07-0.07c0.09-0.09,0.16-0.19,0.21-0.31
		c0.05-0.12,0.07-0.24,0.07-0.36c0-0.12-0.02-0.25-0.07-0.36c-0.05-0.12-0.12-0.22-0.21-0.31c-0.09-0.09-0.19-0.16-0.31-0.21
		c-0.12-0.05-0.24-0.07-0.36-0.07c-0.12,0-0.25,0.02-0.36,0.07c-0.12,0.05-0.22,0.12-0.31,0.21l-0.51,0.51l-1.99-1.02l0.05-0.05
		c0.09-0.09,0.16-0.19,0.21-0.31c0.05-0.12,0.07-0.24,0.07-0.36c0-0.12-0.02-0.25-0.07-0.36c-0.05-0.12-0.12-0.22-0.21-0.31
		c-0.09-0.09-0.19-0.16-0.31-0.21c-0.12-0.05-0.24-0.07-0.36-0.07c-0.12,0-0.25,0.02-0.36,0.07c-0.12,0.05-0.22,0.12-0.31,0.21
		l-0.49,0.49l-1.49-0.76l-4.51-3.06c-0.41-0.28-0.88-0.44-1.38-0.46c-0.49-0.03-0.98,0.08-1.42,0.31c-0.44,0.23-0.8,0.58-1.05,1
		c-0.25,0.42-0.39,0.91-0.39,1.4v4.6c0,0.05,0.01,0.11,0.01,0.16l-1.09,0.85c-0.55,0.43-1.19,0.71-1.87,0.83
		c-0.68,0.12-1.39,0.07-2.04-0.15c-0.66-0.22-1.26-0.59-1.74-1.09c-0.48-0.5-0.83-1.11-1.02-1.78l-0.13-0.45
		c-0.24-0.85-0.75-1.61-1.44-2.17c-0.69-0.56-1.54-0.89-2.43-0.94c-0.89-0.06-1.77,0.16-2.53,0.63c-0.76,0.47-1.35,1.15-1.7,1.97
		c-1.36,3.18-1.51,6.74-0.42,10.02c-0.46,0.25-0.82,0.65-1.03,1.13c-0.21,0.48-0.25,1.02-0.13,1.52l0.38,1.51l-1.93,1.93
		C2.06,37,1.84,37.34,1.7,37.71c-0.14,0.37-0.19,0.77-0.16,1.16C1.58,39.27,1.7,39.65,1.89,40c0.2,0.34,0.46,0.64,0.79,0.87
		l4.93,3.52c0.16,0.11,0.35,0.18,0.55,0.18h11.5c0.7,0,1.39-0.16,2.02-0.48l2.66-1.33l3.71,1.49c0.53,0.21,1.1,0.32,1.67,0.32h4.58
		c5.42,0,10.75-1.4,15.47-4.05l6.54-3.68c0.64-0.36,1.18-0.88,1.55-1.52c0.37-0.63,0.58-1.35,0.59-2.09c0-0.01,0-0.03,0-0.05V32.83z
		"/>
	<path class="st0" d="M29.32,23.42c0.09,0.09,0.19,0.16,0.31,0.21c0.12,0.05,0.24,0.07,0.36,0.07s0.25-0.02,0.36-0.07
		c0.12-0.05,0.22-0.12,0.31-0.21l1.39-1.39l1.99,1.02l-0.93,0.93c-0.18,0.18-0.28,0.42-0.28,0.67c0,0.25,0.1,0.49,0.28,0.67
		c0.18,0.18,0.42,0.28,0.67,0.28c0.25,0,0.49-0.1,0.67-0.28l1.36-1.36l1.99,1.02l-0.9,0.9c-0.09,0.09-0.16,0.19-0.21,0.31
		c-0.05,0.12-0.07,0.24-0.07,0.36s0.02,0.25,0.07,0.36c0.05,0.12,0.12,0.22,0.21,0.31c0.09,0.09,0.19,0.16,0.31,0.21
		c0.12,0.05,0.24,0.07,0.36,0.07c0.12,0,0.25-0.02,0.36-0.07c0.12-0.05,0.22-0.12,0.31-0.21l1.34-1.34l0.67,0.34l0.02,0.01
		c1.23,0.58,2.51,1.08,3.81,1.47l-1.11,0.74h-5.2L25.07,22.5l2.18-1.69c0.28-0.22,0.63-0.36,0.99-0.39c0.36-0.03,0.72,0.03,1.04,0.2
		l1,0.51l-0.95,0.95c-0.09,0.09-0.16,0.19-0.21,0.31c-0.05,0.12-0.07,0.24-0.07,0.36c0,0.12,0.02,0.25,0.07,0.36
		C29.16,23.22,29.23,23.33,29.32,23.42z"/>
	<path class="st0" d="M23.35,18.14c0-0.15,0.04-0.29,0.12-0.42c0.08-0.13,0.19-0.23,0.32-0.3c0.13-0.07,0.28-0.1,0.43-0.09
		c0.15,0.01,0.29,0.06,0.41,0.14l2.12,1.44c-0.23,0.11-0.45,0.25-0.65,0.41l-2.73,2.13V18.14z"/>
	<path class="st0" d="M5.92,32.32c0.05-0.04,0.11-0.06,0.17-0.08l4.33,1.93c2.77,1.23,5.83,1.71,8.84,1.37
		c2.52-0.29,5.07,0.24,7.27,1.51c2.1,1.2,4.47,1.83,6.89,1.83h4.06c2.42,0,4.82-0.34,7.14-1.01l11.46-3.29l2.31-0.72"/>
	<path class="st0" d="M44.11,36.05c-2.15,0.62-4.38,0.93-6.62,0.93h-4.06c-2.09,0-4.14-0.55-5.95-1.58
		c-2.55-1.46-5.5-2.08-8.43-1.74c-1.74,0.19-3.5,0.08-5.2-0.32c0-0.03,0.01-0.07,0.01-0.1v-0.05c0-0.01,0-0.01,0-0.02
		c-0.02-1.9-0.53-3.76-1.49-5.4c-0.96-1.64-2.33-3-3.98-3.94l-1.65-0.95c-0.02-0.01-0.03-0.02-0.05-0.02c0.14-0.51,0.32-1,0.53-1.49
		c0.2-0.46,0.53-0.84,0.95-1.1c0.42-0.26,0.92-0.38,1.41-0.35c0.5,0.03,0.97,0.22,1.36,0.53c0.39,0.31,0.67,0.74,0.81,1.21
		l0.13,0.45c0.28,0.97,0.78,1.85,1.48,2.57c0.7,0.72,1.56,1.26,2.51,1.58c0.95,0.31,1.97,0.38,2.96,0.21
		c0.99-0.17,1.92-0.59,2.71-1.2l1.85-1.44l13.79,6.44c0.13,0.06,0.26,0.09,0.4,0.09h5.69c0.19,0,0.37-0.06,0.53-0.16l2.77-1.85
		c1.14,0.24,2.3,0.4,3.47,0.49l3.01,0.23c0.89,0.07,1.73,0.46,2.36,1.08c0.64,0.63,1.03,1.46,1.12,2.34L44.11,36.05z"/>
	<line class="st0" x1="6.09" y1="32.25" x2="4.16" y2="31.49"/>
</g>
</svg>
