<?xml version="1.0" encoding="utf-8"?>
<!-- Generator: Adobe Illustrator 25.2.1, SVG Export Plug-In . SVG Version: 6.00 Build 0)  -->
<svg version="1.1" id="Layer_1" xmlns="http://www.w3.org/2000/svg" xmlns:xlink="http://www.w3.org/1999/xlink" x="0px" y="0px"
	 viewBox="0 0 60 60" style="enable-background:new 0 0 60 60;" xml:space="preserve">
<style type="text/css">
	.st0{fill:none;}
	.st1{fill:none;stroke:#010202;stroke-width:1.5;stroke-miterlimit:10;}
</style>
<g>
	<rect x="2.13" y="2.08" class="st0" width="55.84" height="55.84"/>
	<g>
		<path class="st1" d="M2.28,23.95c0.25,1.24,0.68,2.41,1.27,3.47c1.92,3.46,2.83,7.06,2.83,10.32v13.49c0,0.6,0.49,1.09,1.09,1.09
			h4.36c0.6,0,1.09-0.49,1.09-1.09V39.05c0-2.46,0.57-4.94,1.64-7.15l0.1-0.16c5.16,4.31,9.3,9.8,12,15.95
			c1.24,2.83,3.99,4.65,7.01,4.65h8.92c4.31,0,7.69-0.09,10.21-0.52c1.25-0.22,5.06-0.87,5.06-3.85c0-1.68-1.39-4.13-3.55-6.22
			c-1.45-1.41-4.49-3.87-8.63-4.48c-0.32-0.05-0.65,0.05-0.89,0.27c-1.08,0.98-3.2,1.69-5.04,1.69c-2.61,0-5.38-1.49-6.43-3.48
			c-0.02-0.04-0.04-0.08-0.07-0.11l-7.28-10.41c-4.51-6.44-9.89-12.22-15.99-17.16c-0.4-0.32-0.97-0.32-1.37-0.01
			c-1.7,1.36-3.12,2.99-4.22,4.83c-2.12,3.57-2.8,7.63-2.12,11.03C2.28,23.93,2.28,23.94,2.28,23.95z M2.13,23.03l0.32,1.63
			l2.67,1.02c2.77,1.29,5.39,2.86,7.83,4.69l2.01,1.6"/>
	</g>
</g>
</svg>
